PathFileType  4	(X/Y/Z) C:\Users\antoi\Documents\MyRepositories\mobilecap\ResultsAnalysis
DataRate	CameraRate	NumFrames	NumMarkers	Units	OrigDataRate	OrigDataStartFrame	OrigNumFrames
100.0	100.0	4	51	mm	100.0	165	1318
Frame#	Time	r_knee			r_shank_antsup			r_ankle			r_calc			r_5meta			r_toe			L_knee			L_shank_antsup			L_ankle			L_calc			L_5meta			L_toe			r_sh2			r_sh3			r_sh4			L_sh2			L_sh3			r_thigh1			r_thigh2			r_thigh3			r_thigh4			r_thigh5			L_thigh1			L_thigh2			L_thigh3			L_thigh4			r.ASIS			r.PSIS			L.ASIS			L.PSIS			C7			R_Shoulder			L_Shoulder			R_Sternum			L_Sternum			R_humerus			R_elbow_med			R_elbow_lat			R_forearm			R_wrist_radius			R_wrist_ulna			L_humerus			L_elbow_med			L_elbow_lat			L_forearm			L_wrist_radius			L_wrist_ulna			R_HJC			L_HJC			R_HJC_reg			L_HJC_reg			
		X1	Y1	Z1	X2	Y2	Z2	X3	Y3	Z3	X4	Y4	Z4	X5	Y5	Z5	X6	Y6	Z6	X7	Y7	Z7	X8	Y8	Z8	X9	Y9	Z9	X10	Y10	Z10	X11	Y11	Z11	X12	Y12	Z12	X13	Y13	Z13	X14	Y14	Z14	X15	Y15	Z15	X16	Y16	Z16	X17	Y17	Z17	X18	Y18	Z18	X19	Y19	Z19	X20	Y20	Z20	X21	Y21	Z21	X22	Y22	Z22	X23	Y23	Z23	X24	Y24	Z24	X25	Y25	Z25	X26	Y26	Z26	X27	Y27	Z27	X28	Y28	Z28	X29	Y29	Z29	X30	Y30	Z30	X31	Y31	Z31	X32	Y32	Z32	X33	Y33	Z33	X34	Y34	Z34	X35	Y35	Z35	X36	Y36	Z36	X37	Y37	Z37	X38	Y38	Z38	X39	Y39	Z39	X40	Y40	Z40	X41	Y41	Z41	X42	Y42	Z42	X43	Y43	Z43	X44	Y44	Z44	X45	Y45	Z45	X46	Y46	Z46	X47	Y47	Z47	X48	Y48	Z48	X49	Y49	Z49	X50	Y50	Z50	X51	Y51	Z51	

165	1.64000000	-101.99503	452.10876	-384.09613	-64.23960	374.03425	-401.20671	-258.17486	95.28612	-419.93243	-334.20386	64.99092	-454.15647	-163.26080	44.45353	-381.23977	-114.31201	68.27874	-437.59144	-186.27414	476.85224	-921.67969	-156.82305	390.76444	-970.04478	-284.64407	104.68593	-998.55025	-340.64805	61.34268	-948.06799	-193.28013	49.64395	-1066.01821	-142.49087	78.31017	-1023.83094	-128.26570	277.49606	-385.90426	-129.93096	413.34630	-370.87876	-190.67633	318.08573	-370.40874	-235.82846	417.14317	-935.81171	-273.76862	305.41004	-969.59071	-291.00317	711.45634	-377.68403	-212.32949	632.69774	-375.42167	-235.15165	575.91784	-348.85886	-370.28481	632.25377	-360.29033	-283.47360	550.41986	-363.26333	-347.61424	674.56896	-821.97631	-249.73333	594.93230	-874.81868	-403.19108	581.49733	-780.60137	-305.01270	506.69233	-850.15326	-294.55598	751.31123	-448.24702	-443.11727	861.29193	-523.84135	-301.91913	716.06114	-685.61065	-443.71341	858.89869	-621.06798	-164.52722	1149.51169	-590.06043	-76.29284	1102.06748	-433.46523	-66.77517	1113.34220	-734.55837	-53.45269	1053.25557	-555.78055	-49.54212	1051.93464	-601.88033	-61.19633	1016.78299	-335.95629	-36.07061	797.87625	-306.02415	-20.16913	849.14833	-243.23761	49.22200	933.34616	-326.02065	108.42901	1000.35420	-414.30698	142.40279	994.91868	-402.24247	-27.08896	1047.82641	-817.44263	50.18549	823.56362	-845.51106	56.82030	886.22752	-907.33887	91.13536	950.61283	-826.36127	149.32330	1025.02276	-719.05598	181.53772	1022.46144	-732.38310	-396.73147	711.97412	-456.71324	-404.72488	691.56223	-662.01634	-392.45716	703.46596	-479.05338	-393.42697	699.56705	-637.45590	
166	1.65000000	-103.73859	453.02961	-384.87806	-65.90057	375.39584	-401.72537	-258.22155	95.42159	-419.83767	-334.21502	64.98318	-454.15166	-163.25961	44.42820	-381.21610	-114.30985	68.25769	-437.56114	-186.82317	477.19064	-921.91400	-157.61296	391.03022	-969.91489	-284.72247	104.70806	-998.69625	-340.66407	61.31295	-948.11622	-193.24414	49.70369	-1066.06431	-142.51342	78.37573	-1023.82670	-129.35507	278.53604	-386.11419	-131.41076	413.64319	-371.75299	-191.79060	318.82449	-371.16376	-236.74660	417.27112	-936.02601	-274.31349	305.37932	-969.83517	-289.11606	714.82273	-379.35277	-211.69362	635.30291	-375.92433	-235.51480	578.62663	-350.08326	-369.74569	636.74817	-362.96232	-284.03913	553.82298	-365.04105	-345.33766	678.31629	-824.10830	-248.64031	596.48141	-876.01169	-401.90726	586.08281	-781.41002	-304.98547	509.28701	-850.57795	-293.17724	757.69849	-449.39660	-442.22203	867.03080	-525.63591	-299.92755	722.12711	-686.86827	-442.68981	864.76313	-623.15494	-165.96825	1158.33681	-591.22270	-77.81135	1111.24636	-434.43972	-68.21619	1122.95931	-736.26925	-54.33767	1062.98859	-557.17655	-50.28417	1061.68304	-603.20224	-63.15392	1025.18140	-337.02884	-39.98829	806.00595	-307.70330	-23.98428	856.86136	-244.75885	46.52264	940.65417	-327.25264	106.45444	1007.06307	-415.36153	140.40599	1001.41549	-403.26900	-28.93170	1056.33173	-819.27087	44.64827	830.46949	-848.12099	52.21298	893.39921	-909.50062	87.74634	957.90297	-829.18234	146.94049	1031.80723	-721.99306	179.06563	1028.83536	-735.50557	-395.36354	718.04353	-458.23305	-402.73142	697.30934	-663.52804	-390.80316	709.10629	-480.36794	-391.56399	705.42076	-638.86562	
167	1.66000000	-105.61803	453.99728	-385.74268	-67.67757	376.73865	-402.34399	-258.33062	95.59390	-419.71816	-334.16062	65.00189	-454.13848	-163.26284	44.41084	-381.18790	-114.29846	68.25524	-437.55620	-187.45602	477.58236	-922.07339	-158.46251	391.42090	-969.85989	-284.82208	104.71708	-998.76897	-340.71890	61.26872	-948.17167	-193.20357	49.80777	-1066.04819	-142.55945	78.48982	-1023.80854	-130.53269	279.47295	-386.47309	-133.43781	414.58903	-372.62693	-193.15700	319.53171	-371.86909	-237.73149	417.39484	-936.14596	-274.96583	305.38895	-969.87934	-287.44034	718.51978	-380.59226	-211.15849	637.81880	-376.68706	-235.99892	581.37445	-351.45333	-369.22890	641.34860	-365.67547	-284.75735	557.36356	-366.80153	-342.98549	681.97740	-826.20014	-247.61912	598.10965	-877.21276	-400.71076	590.52461	-782.00636	-305.06852	511.69495	-850.46001	-291.62484	764.11844	-450.72588	-441.31839	872.82792	-527.48461	-297.82254	728.55752	-688.36298	-441.58836	870.70750	-625.42696	-167.51023	1167.25020	-592.47868	-79.39318	1120.63455	-435.48043	-69.74831	1132.64519	-738.08289	-55.28733	1072.78647	-558.55773	-51.23994	1071.51529	-604.65821	-65.13812	1033.72800	-338.22697	-44.16551	814.08369	-309.28065	-27.90560	864.67575	-246.20203	43.71675	947.97515	-328.35851	104.39349	1013.79573	-416.47152	138.24406	1007.93067	-404.33697	-30.89346	1064.81664	-821.02421	38.43338	836.78738	-850.87536	47.35109	900.43189	-911.59449	83.91513	964.95030	-831.95466	144.50798	1038.60075	-725.35526	176.54344	1035.06951	-738.84589	-393.83108	724.10276	-460.00910	-400.55631	703.26599	-665.31572	-389.04417	714.85309	-481.96204	-389.48215	711.41894	-640.56349	
168	1.67000000	-107.62193	455.20959	-386.53062	-69.50985	378.13522	-403.06301	-258.45401	95.74103	-419.69351	-334.11101	65.02734	-454.13078	-163.27001	44.40338	-381.17203	-114.27620	68.27346	-437.55492	-188.21965	478.00984	-922.15156	-159.38935	391.84091	-969.73486	-284.93696	104.70208	-998.76766	-340.81659	61.19880	-948.22569	-193.16039	49.92360	-1065.93349	-142.61023	78.64044	-1023.73880	-131.80832	280.49357	-386.87609	-135.79091	415.93943	-373.49918	-194.65831	320.25379	-372.45774	-238.84594	417.51416	-936.07026	-275.67132	305.43952	-969.94287	-285.97221	722.52256	-381.44591	-210.59223	639.96852	-377.91831	-236.59003	584.20859	-352.79063	-368.81645	646.07678	-368.24187	-285.45300	560.91582	-368.73220	-340.50207	685.28790	-827.84028	-246.58855	599.71761	-878.51277	-399.54118	594.98356	-782.60335	-305.21317	514.09747	-850.02152	-290.01271	770.64716	-452.13233	-440.33629	878.67367	-529.36239	-295.65732	735.10504	-689.78049	-440.57506	876.71148	-627.54152	-169.15728	1176.25535	-593.91988	-81.06461	1130.17303	-436.75551	-71.34194	1142.28198	-739.94629	-56.28481	1082.66870	-560.13569	-52.20247	1081.47722	-606.07142	-67.26836	1042.26050	-339.55763	-48.47381	822.13801	-310.72214	-31.82473	872.64081	-247.58227	40.72344	955.27271	-329.45553	102.21137	1020.70059	-417.69534	135.91877	1014.29966	-405.33148	-33.07976	1073.28885	-822.85589	33.16424	843.71680	-852.57952	42.38327	907.50340	-913.96294	79.85586	971.90018	-834.60103	141.96504	1045.41212	-729.04599	173.95776	1041.25717	-742.33167	-392.18992	730.23481	-461.74327	-398.34014	709.29623	-667.05738	-387.05576	720.76474	-483.45022	-387.44164	717.59494	-642.05391	
